<svg width="138" height="30" viewBox="0 0 138 30" fill="none" xmlns="http://www.w3.org/2000/svg">
<g clip-path="url(#clip0_616_11997)">
<path d="M39.6569 6C46.6013 6 52.0174 11.0547 52.0174 18.0209C52.029 21.205 50.7297 24.2616 48.4086 26.5112C46.0874 28.7606 42.9367 30.0167 39.6569 29.9999C32.7126 29.9999 27.2969 24.9447 27.2969 18.0209C27.2969 11.0547 32.7129 6 39.6569 6ZM39.6569 25.2424C43.6751 25.2424 46.6888 21.929 46.6888 18.0209C46.6888 13.8584 43.6751 10.7574 39.6569 10.7574C35.6387 10.7574 32.6251 13.8582 32.6251 18.0209C32.6251 22.1416 35.639 25.2424 39.6569 25.2424Z" fill="#FF6067"/>
<path d="M12.3601 6C19.3044 6 24.7205 11.0547 24.7205 18.0209C24.7321 21.205 23.4328 24.2616 21.1117 26.5112C18.7905 28.7606 15.6398 30.0167 12.3601 29.9999C5.41571 29.9999 0 24.9447 0 18.0209C0 11.0547 5.41606 6 12.3601 6ZM12.3601 25.2424C16.3782 25.2424 19.3918 21.929 19.3918 18.0209C19.3918 13.8584 16.3782 10.7574 12.3601 10.7574C8.34188 10.7574 5.32822 13.8582 5.32822 18.0209C5.32822 22.1416 8.34203 25.2424 12.3601 25.2424Z" fill="#FF6067"/>
<path d="M67.5162 29.9989C61.6159 29.9989 59.8864 27.1366 59.8864 27.1366V29.485H54.5938V0.0185547H59.8863V8.55299C59.8863 8.55299 62.7157 5.81792 67.7363 5.81792C73.6895 5.81792 78.5419 10.7395 78.5419 17.9296C78.5419 25.2055 73.5142 29.9989 67.5162 29.9989ZM66.3694 10.4827C62.4883 10.4827 59.8863 13.1793 59.8863 17.9296C59.8863 22.4236 62.5324 25.3766 66.4135 25.3766C70.4266 25.3766 73.0288 22.3378 73.0288 17.9296C73.0288 13.7356 70.3385 10.4825 66.3694 10.4825V10.4827Z" fill="#FF6067"/>
<path d="M86.2635 29.999H81.1133V0H86.2635V29.999Z" fill="#FF6067"/>
<path d="M111.758 17.6387C111.758 11.1821 107.428 6 100.43 6C94.2638 6 88.8398 10.8423 88.8398 18.0209C88.8398 25.3274 93.7381 29.9998 100.866 29.9998C105.388 29.9998 108.801 27.8807 110.46 24.5277C110.816 23.8198 111.093 23.0767 111.286 22.3113H105.984C105.154 24.0528 103.493 25.327 100.824 25.327C97.1498 25.327 94.5256 22.9479 94.1753 19.6347H111.626C111.714 18.9728 111.758 18.3061 111.758 17.6387ZM94.2638 15.8123C94.8758 12.7115 97.3688 10.6724 100.386 10.6724C103.841 10.6724 105.809 12.7544 106.379 15.8123H94.2638Z" fill="#FF6067"/>
<path d="M137.251 17.6387C137.251 11.1821 132.92 6 125.923 6C119.756 6 114.332 10.8423 114.332 18.0209C114.332 25.3274 119.231 29.9998 126.359 29.9998C130.88 29.9998 134.293 27.8807 135.952 24.5277C136.309 23.8198 136.585 23.0767 136.778 22.3113H131.477C130.646 24.0528 128.985 25.327 126.316 25.327C122.642 25.327 120.018 22.9479 119.668 19.6347H137.119C137.206 18.9728 137.251 18.3061 137.251 17.6387ZM119.756 15.8123C120.368 12.7115 122.861 10.6724 125.879 10.6724C129.334 10.6724 131.302 12.7544 131.871 15.8123H119.756Z" fill="#FF6067"/>
</g>
<defs>
<clipPath id="clip0_616_11997">
<rect width="137.25" height="30" fill="white"/>
</clipPath>
</defs>
</svg>
